<?xml version="1.0" encoding="utf-8"?>
<!-- Generator: Adobe Illustrator 19.0.0, SVG Export Plug-In . SVG Version: 6.00 Build 0)  -->
<svg version="1.1" id="Layer_1" xmlns="http://www.w3.org/2000/svg" xmlns:xlink="http://www.w3.org/1999/xlink" x="0px" y="0px"
	 viewBox="-227 28.9 504.1 504.1" style="enable-background:new -227 28.9 504.1 504.1;" xml:space="preserve">
<style type="text/css">
	.st0{fill:#333333;}
	.st1{fill:#352961;}
	.st2{fill:#774181;}
</style>
<path d="M229.9,107.6c0.4,0-199.7-76.8-204.8-78.8c-3.9,1.6-205.2,78.8-204.8,78.8v144.9C-179.7,353-151,484.2,25.1,533
	c175.7-48.8,204.4-182.4,204.4-280.4C229.9,203,229.9,107.6,229.9,107.6z"/>
<path class="st0" d="M-179.7,252.6C-179.7,353-151,484.2,25.1,533V28.9c-7.5,2.8-204.8,78.8-204.8,78.8S-179.7,252.6-179.7,252.6z"
	/>
<path class="st1" d="M190.1,134.8c0.4,0-161.1-65-165.4-66.6c-3.5,1.2-165.8,63.8-165.4,63.4v121.7c0,84.3,16.5,199.3,165.4,240.2
	c148.5-41,165.4-157.9,165.4-240.2C190.5,211.6,190.5,134.8,190.1,134.8z"/>
<path class="st2" d="M25.1,68.3c-3.5,1.2-165.8,63.8-165.4,63.4v121.7c0,84.3,16.5,199.3,165.4,240.2V68.3z"/>
</svg>
